<svg width="51" height="51" viewBox="0 0 51 51" fill="none" xmlns="http://www.w3.org/2000/svg">
<path d="M25.1768 0C39.0816 0 50.3543 11.272 50.3545 25.1768C50.3545 39.0817 39.0817 50.3545 25.1768 50.3545C11.272 50.3543 0 39.0816 0 25.1768C0.000196893 11.2721 11.2721 0.000196881 25.1768 0ZM35.7529 16.4131C35.0479 15.9218 34.1753 15.7294 33.3271 15.8789L25.1514 17.3203L28.8945 38.5518L37.0703 37.1104C37.9186 36.9608 38.6734 36.4813 39.168 35.7783C39.6625 35.0753 39.8569 34.2049 39.708 33.3604L39.1465 30.1768C39.0968 29.8952 38.9362 29.6443 38.7012 29.4805C38.4663 29.317 38.1751 29.253 37.8926 29.3027C37.0443 29.4522 36.1709 29.2599 35.4658 28.7686C34.761 28.2771 34.2807 27.5269 34.1318 26.6826C33.9829 25.838 34.1773 24.9676 34.6719 24.2646C35.1664 23.562 35.9215 23.0842 36.7695 22.9346C37.0522 22.8847 37.3039 22.7244 37.4688 22.4902C37.6336 22.256 37.698 21.966 37.6484 21.6846L37.0869 18.5C36.9379 17.6555 36.458 16.9045 35.7529 16.4131ZM13.3555 13.5C12.5073 13.6497 11.7533 14.1292 11.2588 14.832C10.7642 15.535 10.5689 16.4044 10.7178 17.249L11.2793 20.4326C11.3289 20.7142 11.4895 20.9651 11.7246 21.1289C11.9596 21.2926 12.2505 21.3565 12.5332 21.3066C13.3815 21.1571 14.2548 21.3494 14.96 21.8408C15.6648 22.3322 16.1439 23.0826 16.293 23.9268C16.4419 24.7714 16.2485 25.6417 15.7539 26.3447C15.2593 27.0476 14.5045 27.5262 13.6562 27.6758C13.3735 27.7257 13.1219 27.8858 12.957 28.1201C12.7924 28.3542 12.727 28.6436 12.7764 28.9248L13.3379 32.1104C13.4869 32.9548 13.9678 33.7049 14.6729 34.1963C15.3779 34.6876 16.2505 34.8799 17.0986 34.7305L25.2725 33.2891L21.5283 12.0596L13.3555 13.5Z" fill="black"/>
</svg>
