<svg width="26" height="14" viewBox="0 0 26 14" fill="none" xmlns="http://www.w3.org/2000/svg">
<rect x="1" y="1" width="24" height="12" stroke="white" stroke-width="2"/>
<path d="M13.6406 6.44531C13.9141 6.44531 14.1484 6.48682 14.3438 6.56982C14.5407 6.6512 14.6921 6.77165 14.7979 6.93115C14.9036 7.08903 14.9565 7.28516 14.9565 7.51953C14.9565 7.71159 14.924 7.87598 14.8589 8.0127C14.7954 8.14779 14.7051 8.2609 14.5879 8.35205C14.4723 8.44157 14.3356 8.514 14.1777 8.56934L13.9434 8.69873H12.8081V8.10303H13.6406C13.7676 8.10303 13.8734 8.08105 13.958 8.03711C14.0443 7.99316 14.1086 7.93213 14.1509 7.854C14.1948 7.77425 14.2168 7.68148 14.2168 7.57568C14.2168 7.4113 14.1696 7.2819 14.0752 7.1875C13.9808 7.09147 13.8359 7.04346 13.6406 7.04346H13.0571V10H12.3174V6.44531H13.6406ZM13.4893 8.41309H14.2705L15.0884 9.96582V10H14.2974L13.4893 8.41309ZM17.0732 6.44531H17.4785L17.5591 6.9165L16.8096 10H16.375V9.47021L17.0732 6.44531ZM16.5898 9.47266L16.5435 10H16.0674L15.2788 6.44531H16.0161L16.5898 9.47266ZM18.7554 6.44531H19.4878L18.7017 10H18.2256L18.1865 9.46045L18.7554 6.44531ZM18.4014 9.48242L18.394 10H17.9595L17.21 6.91162L17.2979 6.44531H17.6982L18.4014 9.48242ZM20.6255 10H19.8833V6.44531H20.6255V10ZM22.0269 8.5498H20.4302V7.9541H22.0269V8.5498ZM22.2026 7.04346H20.4302V6.44531H22.2026V7.04346Z" fill="white"/>
<circle cx="5" cy="5" r="2" fill="white"/>
</svg>
